<mxfile host="65bd71144e">
    <diagram id="gaFSn1sXhkaykBUM7PYP" name="Page-1">
        <mxGraphModel dx="873" dy="636" grid="1" gridSize="10" guides="1" tooltips="1" connect="1" arrows="1" fold="1" page="1" pageScale="1" pageWidth="850" pageHeight="1100" math="0" shadow="0">
            <root>
                <mxCell id="0"/>
                <mxCell id="1" parent="0"/>
                <mxCell id="4" value="" style="edgeStyle=none;html=1;" parent="1" source="2" target="3" edge="1">
                    <mxGeometry relative="1" as="geometry"/>
                </mxCell>
                <mxCell id="2" value="&lt;p style=&quot;line-height: 1&quot;&gt;1&lt;/p&gt;" style="ellipse;whiteSpace=wrap;html=1;aspect=fixed;" parent="1" vertex="1">
                    <mxGeometry x="40" y="40" width="80" height="80" as="geometry"/>
                </mxCell>
                <mxCell id="6" value="" style="edgeStyle=none;html=1;" parent="1" source="3" target="5" edge="1">
                    <mxGeometry relative="1" as="geometry"/>
                </mxCell>
                <mxCell id="3" value="&lt;p style=&quot;line-height: 1&quot;&gt;2&lt;/p&gt;" style="ellipse;whiteSpace=wrap;html=1;aspect=fixed;" parent="1" vertex="1">
                    <mxGeometry x="40" y="160" width="80" height="80" as="geometry"/>
                </mxCell>
                <mxCell id="8" value="" style="edgeStyle=none;html=1;" parent="1" source="5" target="7" edge="1">
                    <mxGeometry relative="1" as="geometry"/>
                </mxCell>
                <mxCell id="10" value="" style="edgeStyle=none;html=1;" parent="1" source="5" target="9" edge="1">
                    <mxGeometry relative="1" as="geometry"/>
                </mxCell>
                <mxCell id="5" value="&lt;p style=&quot;line-height: 1&quot;&gt;3&lt;/p&gt;" style="ellipse;whiteSpace=wrap;html=1;aspect=fixed;fillColor=#60a917;fontColor=#ffffff;strokeColor=#2D7600;" parent="1" vertex="1">
                    <mxGeometry x="40" y="280" width="80" height="80" as="geometry"/>
                </mxCell>
                <mxCell id="16" value="" style="edgeStyle=none;html=1;" parent="1" source="7" target="14" edge="1">
                    <mxGeometry relative="1" as="geometry"/>
                </mxCell>
                <mxCell id="20" value="" style="edgeStyle=none;html=1;" parent="1" source="7" target="19" edge="1">
                    <mxGeometry relative="1" as="geometry"/>
                </mxCell>
                <mxCell id="7" value="&lt;p style=&quot;line-height: 1&quot;&gt;6&lt;/p&gt;" style="ellipse;whiteSpace=wrap;html=1;aspect=fixed;fillColor=#60a917;fontColor=#ffffff;strokeColor=#2D7600;" parent="1" vertex="1">
                    <mxGeometry x="40" y="400" width="80" height="80" as="geometry"/>
                </mxCell>
                <mxCell id="12" value="" style="edgeStyle=none;html=1;" parent="1" source="9" target="11" edge="1">
                    <mxGeometry relative="1" as="geometry"/>
                </mxCell>
                <mxCell id="9" value="&lt;p style=&quot;line-height: 1&quot;&gt;4&lt;/p&gt;" style="ellipse;whiteSpace=wrap;html=1;aspect=fixed;" parent="1" vertex="1">
                    <mxGeometry x="160" y="280" width="80" height="80" as="geometry"/>
                </mxCell>
                <mxCell id="11" value="&lt;p style=&quot;line-height: 1&quot;&gt;5&lt;/p&gt;" style="ellipse;whiteSpace=wrap;html=1;aspect=fixed;" parent="1" vertex="1">
                    <mxGeometry x="280" y="280" width="80" height="80" as="geometry"/>
                </mxCell>
                <mxCell id="13" value="" style="edgeStyle=none;html=1;exitX=0.5;exitY=0;exitDx=0;exitDy=0;entryX=1;entryY=0;entryDx=0;entryDy=0;" parent="1" source="11" target="5" edge="1">
                    <mxGeometry relative="1" as="geometry">
                        <mxPoint x="250" y="330" as="sourcePoint"/>
                        <mxPoint x="290" y="330" as="targetPoint"/>
                        <Array as="points">
                            <mxPoint x="320" y="260"/>
                            <mxPoint x="160" y="260"/>
                        </Array>
                    </mxGeometry>
                </mxCell>
                <mxCell id="17" value="" style="edgeStyle=none;html=1;" parent="1" source="14" target="15" edge="1">
                    <mxGeometry relative="1" as="geometry"/>
                </mxCell>
                <mxCell id="14" value="&lt;p style=&quot;line-height: 1&quot;&gt;7&lt;/p&gt;" style="ellipse;whiteSpace=wrap;html=1;aspect=fixed;" parent="1" vertex="1">
                    <mxGeometry x="160" y="400" width="80" height="80" as="geometry"/>
                </mxCell>
                <mxCell id="15" value="&lt;p style=&quot;line-height: 1&quot;&gt;8&lt;br&gt;&lt;/p&gt;" style="ellipse;whiteSpace=wrap;html=1;aspect=fixed;" parent="1" vertex="1">
                    <mxGeometry x="280" y="400" width="80" height="80" as="geometry"/>
                </mxCell>
                <mxCell id="18" value="" style="edgeStyle=none;html=1;exitX=0.5;exitY=0;exitDx=0;exitDy=0;entryX=1;entryY=0;entryDx=0;entryDy=0;" parent="1" edge="1">
                    <mxGeometry relative="1" as="geometry">
                        <mxPoint x="321.72" y="400" as="sourcePoint"/>
                        <mxPoint x="110.0042712474619" y="411.7157287525381" as="targetPoint"/>
                        <Array as="points">
                            <mxPoint x="321.72" y="380"/>
                            <mxPoint x="161.72" y="380"/>
                        </Array>
                    </mxGeometry>
                </mxCell>
                <mxCell id="22" value="" style="edgeStyle=none;html=1;" parent="1" source="19" target="21" edge="1">
                    <mxGeometry relative="1" as="geometry"/>
                </mxCell>
                <mxCell id="19" value="&lt;p style=&quot;line-height: 1&quot;&gt;9&lt;/p&gt;" style="ellipse;whiteSpace=wrap;html=1;aspect=fixed;" parent="1" vertex="1">
                    <mxGeometry x="40" y="520" width="80" height="80" as="geometry"/>
                </mxCell>
                <mxCell id="24" value="" style="edgeStyle=none;html=1;" parent="1" source="21" target="23" edge="1">
                    <mxGeometry relative="1" as="geometry"/>
                </mxCell>
                <mxCell id="21" value="&lt;p style=&quot;line-height: 1&quot;&gt;10&lt;/p&gt;" style="ellipse;whiteSpace=wrap;html=1;aspect=fixed;" parent="1" vertex="1">
                    <mxGeometry x="160" y="520" width="80" height="80" as="geometry"/>
                </mxCell>
                <mxCell id="26" value="" style="edgeStyle=none;html=1;" parent="1" source="23" target="25" edge="1">
                    <mxGeometry relative="1" as="geometry"/>
                </mxCell>
                <mxCell id="28" value="" style="edgeStyle=none;html=1;" parent="1" source="23" target="27" edge="1">
                    <mxGeometry relative="1" as="geometry"/>
                </mxCell>
                <mxCell id="23" value="&lt;p style=&quot;line-height: 1&quot;&gt;11&lt;/p&gt;" style="ellipse;whiteSpace=wrap;html=1;aspect=fixed;fillColor=#60a917;fontColor=#ffffff;strokeColor=#2D7600;" parent="1" vertex="1">
                    <mxGeometry x="160" y="640" width="80" height="80" as="geometry"/>
                </mxCell>
                <mxCell id="25" value="&lt;p style=&quot;line-height: 1&quot;&gt;16&lt;/p&gt;" style="ellipse;whiteSpace=wrap;html=1;aspect=fixed;fillColor=#d80073;fontColor=#ffffff;strokeColor=#A50040;" parent="1" vertex="1">
                    <mxGeometry x="160" y="760" width="80" height="80" as="geometry"/>
                </mxCell>
                <mxCell id="31" value="" style="edgeStyle=none;html=1;" parent="1" source="27" target="30" edge="1">
                    <mxGeometry relative="1" as="geometry"/>
                </mxCell>
                <mxCell id="27" value="&lt;p style=&quot;line-height: 1&quot;&gt;12&lt;/p&gt;" style="ellipse;whiteSpace=wrap;html=1;aspect=fixed;fillColor=#60a917;fontColor=#ffffff;strokeColor=#2D7600;" parent="1" vertex="1">
                    <mxGeometry x="280" y="640" width="80" height="80" as="geometry"/>
                </mxCell>
                <mxCell id="29" value="" style="edgeStyle=none;html=1;entryX=1;entryY=0;entryDx=0;entryDy=0;" parent="1" source="27" target="25" edge="1">
                    <mxGeometry relative="1" as="geometry">
                        <mxPoint x="210" y="730" as="sourcePoint"/>
                        <mxPoint x="210" y="770" as="targetPoint"/>
                    </mxGeometry>
                </mxCell>
                <mxCell id="30" value="&lt;p style=&quot;line-height: 1&quot;&gt;13&lt;/p&gt;" style="ellipse;whiteSpace=wrap;html=1;aspect=fixed;fillColor=#6a00ff;fontColor=#ffffff;strokeColor=#3700CC;" parent="1" vertex="1">
                    <mxGeometry x="400" y="640" width="80" height="80" as="geometry"/>
                </mxCell>
                <mxCell id="32" value="&lt;p style=&quot;line-height: 1&quot;&gt;14&lt;/p&gt;" style="ellipse;whiteSpace=wrap;html=1;aspect=fixed;" parent="1" vertex="1">
                    <mxGeometry x="520" y="560" width="80" height="80" as="geometry"/>
                </mxCell>
                <mxCell id="33" value="" style="edgeStyle=none;html=1;" parent="1" source="30" edge="1">
                    <mxGeometry relative="1" as="geometry">
                        <mxPoint x="370" y="690" as="sourcePoint"/>
                        <mxPoint x="520" y="600" as="targetPoint"/>
                    </mxGeometry>
                </mxCell>
                <mxCell id="34" value="&lt;p style=&quot;line-height: 1&quot;&gt;15&lt;/p&gt;" style="ellipse;whiteSpace=wrap;html=1;aspect=fixed;" parent="1" vertex="1">
                    <mxGeometry x="520" y="720" width="80" height="80" as="geometry"/>
                </mxCell>
                <mxCell id="36" value="" style="edgeStyle=none;html=1;entryX=0;entryY=0.5;entryDx=0;entryDy=0;" parent="1" source="30" target="34" edge="1">
                    <mxGeometry relative="1" as="geometry">
                        <mxPoint x="421.7157287525381" y="718.2842712474619" as="sourcePoint"/>
                        <mxPoint x="370" y="770" as="targetPoint"/>
                    </mxGeometry>
                </mxCell>
                <mxCell id="37" value="" style="edgeStyle=none;html=1;entryX=1;entryY=0;entryDx=0;entryDy=0;exitX=0.5;exitY=0;exitDx=0;exitDy=0;" parent="1" source="32" target="23" edge="1">
                    <mxGeometry relative="1" as="geometry">
                        <mxPoint x="478.2842712474619" y="661.7157287525381" as="sourcePoint"/>
                        <mxPoint x="530" y="610" as="targetPoint"/>
                        <Array as="points">
                            <mxPoint x="320" y="560"/>
                            <mxPoint x="280" y="600"/>
                        </Array>
                    </mxGeometry>
                </mxCell>
                <mxCell id="38" value="" style="edgeStyle=none;html=1;entryX=1;entryY=0;entryDx=0;entryDy=0;exitX=1;exitY=0.5;exitDx=0;exitDy=0;" parent="1" source="34" target="23" edge="1">
                    <mxGeometry relative="1" as="geometry">
                        <mxPoint x="600" y="820" as="sourcePoint"/>
                        <mxPoint x="268.2842712474619" y="911.7157287525381" as="targetPoint"/>
                        <Array as="points">
                            <mxPoint x="640" y="760"/>
                            <mxPoint x="640" y="520"/>
                            <mxPoint x="330" y="520"/>
                            <mxPoint x="280" y="580"/>
                        </Array>
                    </mxGeometry>
                </mxCell>
                <mxCell id="39" value="Regiones = 6" style="text;html=1;align=center;verticalAlign=middle;resizable=0;points=[];autosize=1;strokeColor=none;fillColor=none;" vertex="1" parent="1">
                    <mxGeometry x="590" y="300" width="90" height="20" as="geometry"/>
                </mxCell>
                <mxCell id="40" value="Aristas 20 - Nodos 16 + 2 =&amp;nbsp; 6&amp;nbsp;" style="text;html=1;align=center;verticalAlign=middle;resizable=0;points=[];autosize=1;strokeColor=none;fillColor=none;" vertex="1" parent="1">
                    <mxGeometry x="590" y="335" width="180" height="20" as="geometry"/>
                </mxCell>
                <mxCell id="41" value="NodosPredicado 5 + 1 = 6" style="text;html=1;align=center;verticalAlign=middle;resizable=0;points=[];autosize=1;strokeColor=none;fillColor=none;" vertex="1" parent="1">
                    <mxGeometry x="590" y="370" width="160" height="20" as="geometry"/>
                </mxCell>
                <mxCell id="42" value="1:&amp;nbsp;&lt;span&gt;c1 = [0]*26&lt;/span&gt;&lt;br&gt;2:&amp;nbsp;&lt;span&gt;c2 = [0]*26&lt;/span&gt;&lt;br&gt;3:&amp;nbsp;&lt;span style=&quot;color: rgb(255 , 255 , 255)&quot;&gt;for i in range len(cadena1)&lt;/span&gt;&lt;br&gt;4:&amp;nbsp;&lt;span&gt;pos = ....&lt;/span&gt;&lt;br&gt;5:&amp;nbsp;&lt;span&gt;c1[pos] = c1[pos] + 1&lt;/span&gt;&lt;br&gt;6:&amp;nbsp;&lt;span style=&quot;color: rgb(255 , 255 , 255)&quot;&gt;for i in range len(cadena2)&lt;/span&gt;&lt;br&gt;7:&amp;nbsp;&lt;span&gt;pos = ....&lt;/span&gt;&lt;br&gt;8:&amp;nbsp;&lt;span&gt;c2[pos] = c2[pos] + 1&lt;/span&gt;&lt;br&gt;9:&amp;nbsp;&lt;span&gt;j = 0&lt;/span&gt;&lt;br&gt;10:&amp;nbsp;&lt;span&gt;aunOK = True&lt;/span&gt;&lt;br&gt;11:&amp;nbsp;&lt;span style=&quot;color: rgb(255 , 255 , 255)&quot;&gt;j &amp;lt; 26&lt;/span&gt;&lt;br&gt;12:&amp;nbsp;&lt;span style=&quot;color: rgb(255 , 255 , 255)&quot;&gt;aunOK == True&lt;/span&gt;&lt;br&gt;13:&amp;nbsp;&lt;span style=&quot;color: rgb(255 , 255 , 255)&quot;&gt;c1[j] == c2[j]&lt;/span&gt;&lt;br&gt;14:&amp;nbsp;&lt;span&gt;j = j + 1&lt;/span&gt;&lt;br&gt;15:&amp;nbsp;&lt;span&gt;aunOK = False&lt;/span&gt;&lt;br&gt;16:&amp;nbsp;&lt;span style=&quot;color: rgb(255 , 255 , 255)&quot;&gt;return aunOK&lt;/span&gt;" style="text;html=1;align=center;verticalAlign=middle;resizable=0;points=[];autosize=1;strokeColor=none;fillColor=none;" vertex="1" parent="1">
                    <mxGeometry x="560" y="40" width="170" height="230" as="geometry"/>
                </mxCell>
            </root>
        </mxGraphModel>
    </diagram>
</mxfile>